<svg width="80" height="80" viewBox="0 0 80 80" fill="none" xmlns="http://www.w3.org/2000/svg">
<path d="M56.545 64.446L49.1531 64.4447L23.2417 64.4419C3.20907 53.8318 11.8668 23.1344 11.8668 23.1344L23.3336 20.8883L39.8967 17.6426L56.4474 20.8855L63.2531 22.2186L67.9266 23.1344C67.9266 23.1344 76.5857 53.8387 56.545 64.446Z" fill="#A2A9C7"/>
<path d="M56.5462 64.4461L49.1543 64.4448C68.3932 55.5798 66.1622 33.9849 63.2545 22.2188L67.9279 23.1345C67.9278 23.1345 76.5869 53.8389 56.5462 64.4461Z" fill="#707AA9"/>
<path d="M57.8864 58.2225C57.5102 60.2627 57.0654 62.3413 56.5395 64.4419L56.545 64.446C52.3603 66.6619 46.9249 68.0006 39.8967 68.0006C38.6844 68.0006 37.5202 67.9607 36.4012 67.8825C31.0275 67.5118 26.7055 66.2775 23.2416 64.4419C17.7717 42.5723 20.9487 23.1344 20.9487 23.1344L23.3334 20.8883L39.8967 17.6426L56.4474 20.8855L58.8336 23.1344C58.8336 23.1344 61.4285 39.0178 57.8864 58.2225Z" fill="#707AA9"/>
<path d="M73.7729 14.2265C73.4203 15.9127 72.6809 19.1176 71.5456 22.4434C71.4047 22.856 71.0166 23.1336 70.5806 23.1336H9.21428C8.77825 23.1336 8.39015 22.856 8.24926 22.4434C7.11383 19.1177 6.37457 15.9127 6.02196 14.2265C5.88955 13.5936 6.37272 13 7.01942 13H72.7755C73.4222 13 73.9053 13.5936 73.7729 14.2265Z" fill="#2C3C80"/>
<path opacity="0.1" d="M73.7729 14.2265C73.4203 15.9127 72.6809 19.1176 71.5456 22.4434C71.4048 22.856 71.0167 23.1336 70.5806 23.1336H66.6367C68.4545 18.0387 69.3469 13 69.3469 13H72.7755C73.4222 13 73.9054 13.5936 73.7729 14.2265Z" fill="white"/>
<path d="M51.7638 48.5695C51.7638 55.1226 46.4506 60.4357 39.8976 60.4357C39.1466 60.4357 38.4134 60.3657 37.7009 60.2311C32.1968 59.2028 28.0312 54.3715 28.0312 48.5694C28.0312 42.7672 32.1967 37.936 37.7009 36.9077C38.4134 36.7732 39.1466 36.7031 39.8976 36.7031C46.4507 36.7031 51.7638 42.0164 51.7638 48.5695Z" fill="#41508D"/>
<path d="M51.7622 48.5695C51.7622 55.1226 46.4489 60.4357 39.8959 60.4357C39.1449 60.4357 38.4117 60.3657 37.6992 60.2311C43.2033 59.2028 47.3689 54.3715 47.3689 48.5694C47.3689 42.7672 43.2035 37.936 37.6992 36.9077C38.4117 36.7732 39.1449 36.7031 39.8959 36.7031C46.449 36.7031 51.7622 42.0164 51.7622 48.5695Z" fill="#2C3C80"/>
<path d="M43.8368 48.5685C43.8368 50.7433 42.0726 52.5075 39.8978 52.5075C39.4406 52.5075 39.0013 52.4293 38.5936 52.2851C37.0587 51.7469 35.959 50.286 35.959 48.5685C35.959 46.851 37.0587 45.3902 38.5936 44.8533C39.0013 44.7091 39.4406 44.6309 39.8978 44.6309C42.0726 44.6309 43.8368 46.3938 43.8368 48.5685Z" fill="#A2A9C7"/>
<path d="M43.837 48.5685C43.837 50.7433 42.0727 52.5075 39.898 52.5075C39.4408 52.5075 39.0014 52.4293 38.5938 52.2851C40.1287 51.7469 41.2284 50.286 41.2284 48.5685C41.2284 46.851 40.1287 45.3902 38.5938 44.8533C39.0014 44.7091 39.4408 44.6309 39.898 44.6309C42.0727 44.6309 43.837 46.3938 43.837 48.5685Z" fill="#707AA9"/>
<path d="M56.5406 64.442L56.5462 64.4462C52.3614 66.6621 46.9261 68.0008 39.8979 68.0008C38.6855 68.0008 37.5214 67.9609 36.4023 67.8826C46.6761 66.5907 53.4858 62.9882 57.8874 58.2227C57.5113 60.2629 57.0664 62.3415 56.5406 64.442Z" fill="#707AA9"/>
<path d="M49.3 29.4199C49.8486 29.4199 50.2934 29.8646 50.2934 30.413C50.2934 30.9615 49.8486 31.4061 49.3 31.4061C48.7514 31.4061 48.3066 30.9615 48.3066 30.413C48.3066 29.8646 48.7514 29.4199 49.3 29.4199Z" fill="#00FAB4"/>
<path d="M39.8976 29.4199C40.4462 29.4199 40.891 29.8646 40.891 30.413C40.891 30.9615 40.4462 31.4061 39.8976 31.4061C39.3491 31.4061 38.9043 30.9615 38.9043 30.413C38.9043 29.8646 39.3491 29.4199 39.8976 29.4199Z" fill="#00FAB4"/>
<path d="M30.4973 29.4199C31.0458 29.4199 31.4906 29.8646 31.4906 30.413C31.4906 30.9615 31.0458 31.4061 30.4973 31.4061C29.9487 31.4061 29.5039 30.9615 29.5039 30.413C29.5039 29.8646 29.9487 29.4199 30.4973 29.4199Z" fill="#00FAB4"/>
<path d="M30.4973 31.4061C31.0458 31.4061 31.4906 30.9615 31.4906 30.413C31.4906 29.8646 31.0458 29.4199 30.4973 29.4199C29.9487 29.4199 29.5039 29.8646 29.5039 30.413C29.5039 30.9615 29.9487 31.4061 30.4973 31.4061Z" fill="#2C3C80"/>
<path d="M39.8976 31.4061C40.4462 31.4061 40.891 30.9615 40.891 30.413C40.891 29.8646 40.4462 29.4199 39.8976 29.4199C39.3491 29.4199 38.9043 29.8646 38.9043 30.413C38.9043 30.9615 39.3491 31.4061 39.8976 31.4061Z" fill="#2C3C80"/>
<path d="M49.298 31.4061C49.8466 31.4061 50.2914 30.9615 50.2914 30.413C50.2914 29.8646 49.8466 29.4199 49.298 29.4199C48.7495 29.4199 48.3047 29.8646 48.3047 30.413C48.3047 30.9615 48.7495 31.4061 49.298 31.4061Z" fill="#2C3C80"/>
</svg>
