<svg width="80" height="80" viewBox="0 0 80 80" fill="none" xmlns="http://www.w3.org/2000/svg">
<path opacity="0.1" d="M17.502 11.5H63.2645V67.4465H17.502V11.5Z" fill="#7E87B2"/>
<path opacity="0.1" d="M63.2643 67.0764V59.2904H31.8652V11.5H19.752V67.0764H63.2643Z" fill="#41508D"/>
<path opacity="0.1" d="M17.502 41.5898H63.2645V45.7909H17.502V41.5898Z" fill="#2C3C80"/>
<path d="M61.9873 68.9273C63.7087 67.6167 65.3087 66.1549 66.7648 64.5586V16.4358C63.5368 12.8988 59.607 10.0138 55.1957 8H25.5195C21.3706 9.87786 18.8302 11.9715 18.2715 12.4517V65.9972C18.4398 66.1301 22.0765 68.7973 22.2472 68.9273H61.9873ZM21.0022 15.0017H59.763V65.9972H21.0022V15.0017Z" fill="#5C83EF"/>
<path d="M64.0335 73H66.7639V8.00001L55.1948 8H25.5187L14.0469 8.00003V73H64.0335ZM21.0014 15.0017H59.7622V65.9972H21.0014V15.0017Z" fill="#707AA9"/>
<path d="M38.2812 45.1699H42.4823V69.4974H38.2812V45.1699Z" fill="#2C3C80"/>
<path d="M38.2812 18.2832H42.4823V40.9298H38.2812V18.2832Z" fill="#2C3C80"/>
<path d="M38.2812 40.2285H42.4823V45.6724H38.2812V40.2285Z" fill="#2C3C80"/>
<path d="M38.2812 15.002H42.4823V18.663H38.2812V15.002Z" fill="#2C3C80"/>
<path d="M26.9434 38.3984H63.2638V42.5995H26.9434V38.3984Z" fill="#2C3C80"/>
<path d="M17.502 38.3984H27.805V42.5995H17.502V38.3984Z" fill="#2C3C80"/>
<path d="M59.7627 65.9972H21.0017V15.0017L14 8V72.9989H25.5691H55.1929H62.3866L59.7627 65.9972Z" fill="#7E87B2"/>
</svg>
