<svg width="80" height="80" viewBox="0 0 80 80" fill="none" xmlns="http://www.w3.org/2000/svg">
<path opacity="0.5" d="M68 68.5H11C11 68.5 11 57.8665 11 41C11 24.1335 11 10.5 11 10.5L68 10.5C68 10.5 68 24.1335 68 41C68 57.8665 68 68.5 68 68.5Z" fill="#A2A9C7"/>
<path d="M26.957 31.3219C26.4688 31.3219 26.0742 30.9247 26.0742 30.4334V10.8885C26.0742 10.3972 26.4688 10 26.957 10C27.4451 10 27.8397 10.3972 27.8397 10.8885V30.4334C27.8397 30.9247 27.4443 31.3219 26.957 31.3219Z" fill="#41508D"/>
<path d="M23.4941 45.582H30.5562V45.5912C30.5562 47.6171 28.98 49.2488 27.0252 49.2488C25.0791 49.2488 23.4941 47.6171 23.4941 45.5912V45.582Z" fill="#707AA9"/>
<path d="M27.0257 30.5078C32.9476 30.5167 37.7367 35.2729 37.7367 41.1363L37.7545 41.1451V44.6959L30.599 45.5825H23.4703L16.3147 44.6959L16.2969 42.7034V41.1363C16.2969 35.2729 21.1021 30.5078 27.0168 30.5078H27.0257Z" fill="#707AA9"/>
<path opacity="0.1" d="M16.2969 41.5438L16.3147 44.6959H17C18 38.5008 21 33.5008 27.0257 30.5078H27.0168C21.1021 30.5078 16.2969 35.2729 16.2969 41.1363V41.5438Z" fill="white"/>
<path d="M67.1094 12H11.8906C11.3981 12 11 11.3295 11 10.5C11 9.6705 11.3981 9 11.8906 9H67.1094C67.6019 9 68 9.6705 68 10.5C68 11.3295 67.6019 12 67.1094 12Z" fill="#2C3C80"/>
<path d="M36.8604 45.5819H17.1911C16.6966 45.5819 16.2969 45.1873 16.2969 44.6992C16.2969 44.211 16.6966 43.8164 17.1911 43.8164H36.8604C37.3549 43.8164 37.7545 44.211 37.7545 44.6992C37.7545 45.1873 37.3549 45.5819 36.8604 45.5819Z" fill="#41508D"/>
<path opacity="0.1" d="M16.2969 44.6992C16.2969 45.1873 16.6966 45.5819 17.1911 45.5819H19.5V43.8164H17.1911C16.6966 43.8164 16.2969 44.211 16.2969 44.6992Z" fill="white"/>
<path d="M27.0216 55.4341C26.529 55.4341 26.1309 55.0359 26.1309 54.5434V51.8712C26.1309 51.3786 26.529 50.9805 27.0216 50.9805C27.5142 50.9805 27.9123 51.3786 27.9123 51.8712V54.5434C27.9123 55.035 27.5142 55.4341 27.0216 55.4341Z" fill="#707AA9"/>
<path d="M33.3095 52.8623C33.0814 52.8623 32.8534 52.775 32.6797 52.6013L30.7905 50.7121C30.4422 50.3638 30.4422 49.8009 30.7905 49.4526C31.1388 49.1043 31.7017 49.1043 32.05 49.4526L33.9392 51.3418C34.2875 51.6901 34.2875 52.253 33.9392 52.6013C33.7655 52.775 33.5375 52.8623 33.3095 52.8623Z" fill="#707AA9"/>
<path d="M20.7327 52.8076C20.5047 52.8076 20.2767 52.7203 20.103 52.5466C19.7547 52.1992 19.7547 51.6354 20.103 51.2871L21.9904 49.3979C22.3387 49.0497 22.9017 49.0497 23.2499 49.3979C23.5982 49.7453 23.5982 50.3091 23.2499 50.6574L21.3625 52.5466C21.1879 52.7212 20.9608 52.8076 20.7327 52.8076Z" fill="#707AA9"/>
<path d="M54.0802 22.2929C53.6896 21.9024 53.0565 21.9024 52.6659 22.2929L46.302 28.6569C45.9115 29.0474 45.9115 29.6805 46.302 30.0711C46.6925 30.4616 47.3257 30.4616 47.7162 30.0711L53.373 24.4142L59.0299 30.0711C59.4204 30.4616 60.0536 30.4616 60.4441 30.0711C60.8346 29.6805 60.8346 29.0474 60.4441 28.6569L54.0802 22.2929ZM52.6659 56.301C53.0565 56.6916 53.6896 56.6916 54.0801 56.301L60.4441 49.9371C60.8346 49.5466 60.8346 48.9134 60.4441 48.5229C60.0536 48.1323 59.4204 48.1323 59.0299 48.5229L53.373 54.1797L47.7162 48.5229C47.3257 48.1323 46.6925 48.1323 46.302 48.5229C45.9114 48.9134 45.9114 49.5466 46.302 49.9371L52.6659 56.301ZM52.373 23L52.373 55.5939L54.373 55.5939L54.373 23L52.373 23Z" fill="#2C3C80"/>
<path d="M67.1094 70H11.8906C11.3981 70 11 69.3295 11 68.5C11 67.6705 11.3981 67 11.8906 67H67.1094C67.6019 67 68 67.6705 68 68.5C68 69.3295 67.6019 70 67.1094 70Z" fill="#2C3C80"/>
</svg>
