<svg width="80" height="80" viewBox="0 0 80 80" fill="none" xmlns="http://www.w3.org/2000/svg">
<path d="M39.9997 49.3086H34.2305V70.7189C34.2305 71.7809 35.0915 72.6419 36.1535 72.6419H39.9997H43.8459C44.9079 72.6419 45.7689 71.7809 45.7689 70.7189V49.3086H39.9997Z" fill="#A2A9C7"/>
<path d="M45.7692 70.7189V49.3086H40V72.6419H43.8462C44.9082 72.6419 45.7692 71.7809 45.7692 70.7189Z" fill="#ABB2CD"/>
<path d="M65 12.7692V51.2308C65 54.4232 62.4232 57 59.2308 57H20.7692C17.5768 57 15 54.4232 15 51.2308V12.7692C15 9.5768 17.5768 7 20.7692 7H59.2308C62.4232 7 65 9.5768 65 12.7692Z" fill="#2C3C80"/>
<path d="M65 12.7692V51.2308C65 54.4232 62.4232 57 59.2308 57H40V7H59.2308C62.4232 7 65 9.5768 65 12.7692Z" fill="#41508D"/>
<path d="M40 17H32.5C31.6716 17 31 17.6714 31 18.5V42.5C31 43.3284 31.6716 44 32.5 44H35.5C36.3284 44 37 43.3284 37 42.5V35H40C44.9706 35 49 30.9706 49 26C49 21.0294 44.9706 17 40 17ZM40 29H37V23H40C41.6569 23 43 24.3431 43 26C43 27.6567 41.6569 29 40 29Z" fill="#A2A9C7"/>
<path d="M49.002 26C49.002 21.0294 44.9726 17 40.002 17V23C41.6589 23 43.002 24.3431 43.002 26C43.002 27.6567 41.6589 29 40.002 29V35C44.9726 35 49.002 30.9706 49.002 26Z" fill="#ABB2CD"/>
</svg>
