<svg width="80" height="80" viewBox="0 0 80 80" fill="none" xmlns="http://www.w3.org/2000/svg">
<path d="M69.9995 10V70H58.883H21.1181H10V10H69.9995Z" fill="#41508D"/>
<path d="M10.9265 70H14.0736H15L70 70V65.5H15V10H10V70H10.9265Z" fill="#2C3C80"/>
<path d="M65.6599 14.3398V65.6593H64.4516H15.5497H14.3398V14.3398H65.6599Z" fill="#A2A9C7"/>
<path d="M53.4476 34.2177L50.6055 33.6725C50.7688 32.8207 50.8516 31.9445 50.8516 31.0684H53.7451C53.7451 32.1268 53.645 33.1863 53.4476 34.2177Z" fill="#41508D"/>
<path d="M42.9787 46.6407L41.957 43.9333C43.4178 43.3821 44.7662 42.5898 45.9652 41.5779L47.8317 43.7889C46.3806 45.0139 44.7478 45.9733 42.9787 46.6407ZM49.8279 41.7926L47.6164 39.9267C48.6283 38.7276 49.4207 37.3788 49.9718 35.918L52.6792 36.9391C52.0118 38.7082 51.0524 40.3415 49.8279 41.7926Z" fill="#41508D"/>
<path d="M37.1055 47.706V44.8125C37.9816 44.8125 38.8573 44.7297 39.7096 44.5664L40.2543 47.408C39.2229 47.6059 38.1639 47.706 37.1055 47.706Z" fill="#41508D"/>
<path d="M18.1504 18.1484V61.8496H61.8516V18.1484H18.1504ZM58.9581 58.9561H38.5542V44.885H35.6607V58.9561H21.0439V21.0419H35.6607V32.5148H53.7454V29.6213H38.5542V21.0419H58.9581V58.9561Z" fill="#2C3C80"/>
</svg>
