<svg width="80" height="80" viewBox="0 0 80 80" fill="none" xmlns="http://www.w3.org/2000/svg">
<path d="M60.0976 11.2634V71.8424H9.2168V11.2634C9.2168 9.72555 10.4638 8.47852 12.0016 8.47852H57.3127C58.8506 8.47852 60.0976 9.72555 60.0976 11.2634Z" fill="#707AA9"/>
<path opacity="0.1" d="M60.0977 11.2634V71.8424H13.6914V11.2634C13.6914 9.72555 14.9383 8.47852 16.4761 8.47852H57.3128C58.8506 8.47852 60.0977 9.72555 60.0977 11.2634Z" fill="white"/>
<path opacity="0.2" d="M60.0976 25.0524V71.8432H9.2168V25.0524C9.2168 23.5146 10.4638 22.2676 12.0016 22.2676H57.3127C58.8506 22.2676 60.0976 23.5146 60.0976 25.0524Z" fill="white"/>
<path opacity="0.1" d="M60.0975 25.0524V71.8432H34.6562V22.2676H57.3127C58.8505 22.2676 60.0975 23.5146 60.0975 25.0524Z" fill="white"/>
<path d="M43.6284 19.8852H26.9781C25.9591 19.8852 25.1328 19.059 25.1328 18.0399V12.8902C25.1328 11.8712 25.9591 11.0449 26.9781 11.0449H43.6284C44.6475 11.0449 45.4737 11.8712 45.4737 12.8902V18.0399C45.4737 19.059 44.6475 19.8852 43.6284 19.8852Z" fill="#2C3C80"/>
<path opacity="0.1" d="M27.1547 19.8852H26.9781C25.9591 19.8852 25.1328 19.059 25.1328 18.0399V12.8902C25.1328 11.8712 25.9591 11.0449 26.9781 11.0449H27.1547C28.1737 11.0449 29 11.8712 29 12.8902V18.0399C29 19.059 28.1737 19.8852 27.1547 19.8852Z" fill="white"/>
<path d="M36.5167 22.2676H34.0938V71.8432H36.5167V22.2676Z" fill="#2C3C80"/>
<path d="M70.4933 36.0803V48.6797C70.4933 49.8395 69.5531 50.7795 68.3934 50.7795H64.5491C63.3892 50.7795 62.4492 49.8394 62.4492 48.6797V36.0803C62.4492 34.9205 63.3894 33.9805 64.5491 33.9805H68.3934C69.5533 33.9803 70.4933 34.9205 70.4933 36.0803Z" fill="#707AA9"/>
<path opacity="0.1" d="M70.4936 36.0803V48.6797C70.4936 49.8395 69.5534 50.7795 68.3937 50.7795H66.5959C65.4361 50.7795 64.4961 49.8394 64.4961 48.6797V36.0803C64.4961 34.9205 65.4362 33.9805 66.5959 33.9805H68.3937C69.5536 33.9803 70.4936 34.9205 70.4936 36.0803Z" fill="white"/>
<path d="M67.8238 41.0246H65.1197C64.64 41.0246 64.3411 40.5061 64.5802 40.0911L65.2554 38.92L65.9322 37.7489C66.1713 37.3337 66.7705 37.3337 67.0096 37.7489L67.6864 38.92L67.7785 39.0798L68.3616 40.0911C68.6024 40.5062 68.3019 41.0246 67.8238 41.0246Z" fill="#2C3C80"/>
<path d="M68.3616 44.6717L67.9222 45.4342L67.6864 45.843L67.0096 47.0141C66.7705 47.4292 66.1713 47.4292 65.9322 47.0141L65.2554 45.843L64.5802 44.6719C64.3411 44.2567 64.64 43.7383 65.1197 43.7383H67.8238C68.3019 43.7381 68.6024 44.2566 68.3616 44.6717Z" fill="#2C3C80"/>
<path opacity="0.1" d="M68.3595 44.6699L67.9202 45.4324C67.1884 45.0738 66.5972 44.4746 66.25 43.7363H67.8217C68.2998 43.7363 68.6003 44.2548 68.3595 44.6699Z" fill="white"/>
<path opacity="0.1" d="M66.1172 41.023C66.4128 40.1895 67.0089 39.4966 67.7776 39.0781L68.3608 40.0894C68.6014 40.5045 68.3011 41.023 67.8228 41.023H66.1172Z" fill="white"/>
<path d="M12.0016 22.2676C10.4638 22.2676 9.2168 23.5146 9.2168 25.0524V71.8432H13.6912V22.2676H12.0016Z" fill="#707AA9"/>
</svg>
