<svg width="80" height="80" viewBox="0 0 80 80" fill="none" xmlns="http://www.w3.org/2000/svg">
<path d="M54.3984 10H26.2734C23.3554 10 21 12.3554 21 15.2734V64.7266C21 67.6444 23.3554 70 26.2734 70H54.3984C57.3165 70 59.6719 67.6444 59.6719 64.7266V15.2734C59.6719 12.3554 57.3165 10 54.3984 10Z" fill="#707AA9"/>
<path d="M59.6719 15.2734V64.7266C59.6719 67.6444 57.3165 70 54.3984 70H40.3359V10H54.3984C57.3165 10 59.6719 12.3554 59.6719 15.2734Z" fill="#7E87B2"/>
<path d="M47.3672 62.9688C44.4593 62.9688 42.0938 60.6032 42.0938 57.6953C42.0938 54.7874 44.4593 52.4219 47.3672 52.4219C50.2751 52.4219 52.6406 54.7874 52.6406 57.6953C52.6406 60.6032 50.2751 62.9688 47.3672 62.9688Z" fill="#2C3C80"/>
<path d="M52.6406 40.1172C52.6406 41.1014 51.8673 41.875 50.8828 41.875H29.7891C28.8046 41.875 28.0312 41.1014 28.0312 40.1172C28.0312 39.1327 28.8046 38.2422 29.7891 38.2422H50.8828C51.8673 38.2422 52.6406 39.1327 52.6406 40.1172Z" fill="#2C3C80"/>
<path d="M50.8828 48.9062C51.8536 48.9062 52.6406 48.1193 52.6406 47.1484C52.6406 46.1776 51.8536 45.3906 50.8828 45.3906C49.912 45.3906 49.125 46.1776 49.125 47.1484C49.125 48.1193 49.912 48.9062 50.8828 48.9062Z" fill="#41508D"/>
<path d="M43.8516 48.9062C44.8224 48.9062 45.6094 48.1193 45.6094 47.1484C45.6094 46.1776 44.8224 45.3906 43.8516 45.3906C42.8807 45.3906 42.0938 46.1776 42.0938 47.1484C42.0938 48.1193 42.8807 48.9062 43.8516 48.9062Z" fill="#41508D"/>
<path d="M36.8203 48.9062C37.7911 48.9062 38.5781 48.1193 38.5781 47.1484C38.5781 46.1776 37.7911 45.3906 36.8203 45.3906C35.8495 45.3906 35.0625 46.1776 35.0625 47.1484C35.0625 48.1193 35.8495 48.9062 36.8203 48.9062Z" fill="#2C3C80"/>
<path d="M29.7891 48.9062C30.7599 48.9062 31.5469 48.1193 31.5469 47.1484C31.5469 46.1776 30.7599 45.3906 29.7891 45.3906C28.8182 45.3906 28.0312 46.1776 28.0312 47.1484C28.0312 48.1193 28.8182 48.9062 29.7891 48.9062Z" fill="#2C3C80"/>
<path d="M29.7891 55.9375C30.7599 55.9375 31.5469 55.1505 31.5469 54.1797C31.5469 53.2089 30.7599 52.4219 29.7891 52.4219C28.8182 52.4219 28.0312 53.2089 28.0312 54.1797C28.0312 55.1505 28.8182 55.9375 29.7891 55.9375Z" fill="#2C3C80"/>
<path d="M36.8203 55.9375C37.7911 55.9375 38.5781 55.1505 38.5781 54.1797C38.5781 53.2089 37.7911 52.4219 36.8203 52.4219C35.8495 52.4219 35.0625 53.2089 35.0625 54.1797C35.0625 55.1505 35.8495 55.9375 36.8203 55.9375Z" fill="#2C3C80"/>
<path d="M36.8203 62.9688C37.7911 62.9688 38.5781 62.1818 38.5781 61.2109C38.5781 60.2401 37.7911 59.4531 36.8203 59.4531C35.8495 59.4531 35.0625 60.2401 35.0625 61.2109C35.0625 62.1818 35.8495 62.9688 36.8203 62.9688Z" fill="#2C3C80"/>
<path d="M29.7891 62.9688C30.7599 62.9688 31.5469 62.1818 31.5469 61.2109C31.5469 60.2401 30.7599 59.4531 29.7891 59.4531C28.8182 59.4531 28.0312 60.2401 28.0312 61.2109C28.0312 62.1818 28.8182 62.9688 29.7891 62.9688Z" fill="#2C3C80"/>
<path d="M40.3359 17.0312C35.4844 17.0312 31.5469 20.9687 31.5469 25.8203C31.5469 30.6719 35.4844 34.6094 40.3359 34.6094C45.1875 34.6094 49.125 30.6719 49.125 25.8203C49.125 20.9687 45.1875 17.0312 40.3359 17.0312Z" fill="#2C3C80"/>
<path d="M49.125 25.8203C49.125 30.6719 45.1875 34.6094 40.3359 34.6094V17.0312C45.1875 17.0312 49.125 20.9687 49.125 25.8203Z" fill="#41508D"/>
<path d="M40.3359 20.5469C37.4179 20.5469 35.0625 22.9022 35.0625 25.8203C35.0625 28.7382 37.4179 31.0938 40.3359 31.0938C43.254 31.0938 45.6094 28.7382 45.6094 25.8203C45.6094 22.9022 43.254 20.5469 40.3359 20.5469Z" fill="#707AA9"/>
<path d="M45.6094 25.8203C45.6094 28.7382 43.254 31.0938 40.3359 31.0938V20.5469C43.254 20.5469 45.6094 22.9022 45.6094 25.8203Z" fill="#7E87B2"/>
<path d="M42.0938 25.8203C42.0938 26.8046 41.3204 27.5781 40.3359 27.5781C39.3514 27.5781 38.5781 26.8046 38.5781 25.8203C38.5781 24.8358 39.3514 24.0625 40.3359 24.0625C41.3204 24.0625 42.0938 24.8358 42.0938 25.8203Z" fill="#2C3C80"/>
<path d="M42.0938 25.8203C42.0938 26.8046 41.3204 27.5781 40.3359 27.5781V24.0625C41.3204 24.0625 42.0938 24.8358 42.0938 25.8203Z" fill="#41508D"/>
<path d="M52.6406 40.1172C52.6406 41.1014 51.8673 41.875 50.8828 41.875H40.3359V38.2422H50.8828C51.8673 38.2422 52.6406 39.1327 52.6406 40.1172Z" fill="#41508D"/>
</svg>
