<svg width="80" height="80" viewBox="0 0 80 80" fill="none" xmlns="http://www.w3.org/2000/svg">
<path d="M32.7363 72.3841V52.3418H37.7203V72.3841C37.7203 72.8509 37.342 73.2292 36.8752 73.2292H33.5814C33.1146 73.2292 32.7363 72.8507 32.7363 72.3841Z" fill="#7E87B2"/>
<path d="M9.61719 72.3841V52.3418H14.6011V72.3841C14.6011 72.8509 14.2228 73.2292 13.7561 73.2292H10.4622C9.99549 73.2292 9.61719 72.8507 9.61719 72.3841Z" fill="#7E87B2"/>
<path d="M9.61719 54.3945H14.6011V59.3785H9.61719V54.3945Z" fill="#707AA9"/>
<path d="M32.7363 54.3945H37.7203V59.3785H32.7363V54.3945Z" fill="#707AA9"/>
<path d="M73.8732 63.9369H67.8455L43.5848 42.3311C43.2408 42.0247 42.7962 41.8555 42.3356 41.8555H23.6641V51.1474H37.7263L61.9869 72.7532C62.3309 73.0596 62.7755 73.2289 63.2361 73.2289H73.8732C74.4957 73.2289 75.0002 72.7243 75.0002 72.1019V65.064C75.0002 64.4416 74.4956 63.9369 73.8732 63.9369Z" fill="#2C3C80"/>
<path d="M73.8732 63.9369H67.8455L43.5848 42.3311C43.2408 42.0249 42.7962 41.8555 42.3356 41.8555H23.6641V43.8517H37.5447C38.0053 43.8517 38.4499 44.021 38.7939 44.3273L63.0546 65.9332H69.0823C69.7048 65.9332 70.2093 66.4378 70.2093 67.0601V73.2289H73.8732C74.4957 73.2289 75.0002 72.7243 75.0002 72.1019V65.064C75.0002 64.4416 74.4956 63.9369 73.8732 63.9369Z" fill="#41508D"/>
<path d="M9.03711 22.248H38.2984V52.3419H9.03711V22.248Z" fill="#707AA9"/>
<path d="M33.5078 22.248H38.2987V52.3421H33.5078V22.248Z" fill="#7E87B2"/>
<path d="M5.54485 24.925H41.7918C42.2859 24.925 42.5238 24.3192 42.1619 23.983L24.0384 7.1454C23.8298 6.95153 23.5068 6.95153 23.2982 7.1454L5.17475 23.983C4.81272 24.3193 5.05075 24.925 5.54485 24.925Z" fill="#2C3C80"/>
<path d="M42.1625 23.983L24.039 7.1454C23.8304 6.95153 23.5074 6.95153 23.2988 7.1454L21.2734 9.0272L37.3715 23.9832C37.7336 24.3195 37.4955 24.9251 37.0014 24.9251H41.7924C42.2865 24.9251 42.5243 24.3193 42.1625 23.983Z" fill="#41508D"/>
<path d="M40.0464 55.7847H7.28818C6.83783 55.7847 6.47266 55.4196 6.47266 54.9692V51.6163C6.47266 51.166 6.83783 50.8008 7.28818 50.8008H40.0464C40.4968 50.8008 40.8619 51.166 40.8619 51.6163V54.9692C40.8619 55.4196 40.4969 55.7847 40.0464 55.7847Z" fill="#A2A9C7"/>
<path d="M40.0487 50.8008H35.2578C35.7083 50.8008 36.0733 51.166 36.0733 51.6163V54.9692C36.0733 55.4196 35.7082 55.7847 35.2578 55.7847H40.0487C40.4992 55.7847 40.8642 55.4196 40.8642 54.9692V51.6163C40.8642 51.1658 40.4992 50.8008 40.0487 50.8008Z" fill="#ABB2CD"/>
<path d="M23.6655 46.2938C28.3283 46.2938 32.1083 42.5138 32.1083 37.851C32.1083 33.1882 28.3283 29.4082 23.6655 29.4082C19.0026 29.4082 15.2227 33.1882 15.2227 37.851C15.2227 42.5138 19.0026 46.2938 23.6655 46.2938Z" fill="#2C3C80"/>
<path d="M23.6637 29.4082C22.9185 29.4082 22.1962 29.5057 21.5078 29.687C25.1261 30.64 27.7947 33.9335 27.7947 37.8509C27.7947 41.7683 25.1261 45.0617 21.5078 46.0148C22.1962 46.1961 22.9185 46.2937 23.6637 46.2937C28.3265 46.2937 32.1065 42.5137 32.1065 37.8509C32.1064 33.1882 28.3265 29.4082 23.6637 29.4082Z" fill="#41508D"/>
<path d="M23.6639 42.5173C21.0911 42.5173 18.998 40.4243 18.998 37.8514C18.998 35.2786 21.0911 33.1855 23.6639 33.1855C26.2366 33.1855 28.3297 35.2786 28.3297 37.8514C28.3298 40.4243 26.2366 42.5173 23.6639 42.5173Z" fill="#A2A9C7"/>
<path d="M23.6665 33.1855C23.2177 33.1855 22.784 33.2506 22.373 33.3694C24.3183 33.9318 25.7454 35.7276 25.7454 37.8513C25.7454 39.9753 24.3183 41.7711 22.373 42.3334C22.7842 42.4522 23.2178 42.5172 23.6665 42.5172C26.2393 42.5172 28.3323 40.4241 28.3323 37.8512C28.3325 35.2787 26.2393 33.1855 23.6665 33.1855Z" fill="#ABB2CD"/>
</svg>
