<svg width="80" height="80" viewBox="0 0 80 80" fill="none" xmlns="http://www.w3.org/2000/svg">
<path d="M68.4542 37.5543L64.9959 45.7022L68.4542 53.8528V70.7458L42.9193 74.9995H30.5362L5 62.9543V53.8515L9.05904 46.5869L5 37.5529V28.451L30.5363 16.4062C36.9741 16.4062 38.6658 18.5054 38.6658 21.665C38.6658 24.8231 36.5468 31.8343 41.9824 32.7048C47.4179 33.5752 68.4542 30.3606 68.4542 37.5543Z" fill="#A2A9C7"/>
<path d="M30.5358 58.7012H9.25318C6.90422 58.7012 5 60.6054 5 62.9544V70.7464C5 73.0953 6.90422 74.9995 9.25318 74.9995H30.5358C32.8847 74.9995 34.789 73.0953 34.789 70.7464V62.9544C34.789 60.6054 32.8847 58.7012 30.5358 58.7012Z" fill="#707AA9"/>
<path opacity="0.1" d="M13.1182 74.9997H9.25373C6.90531 74.9997 5 73.0944 5 70.746V62.9534C5 60.605 6.90531 58.7012 9.25373 58.7012H13.1181C10.7683 58.7012 8.86436 60.6051 8.86436 62.9534V70.746C8.86449 73.0944 10.7684 74.9997 13.1182 74.9997Z" fill="white"/>
<path d="M64.2018 58.7012H42.9192C40.5702 58.7012 38.666 60.6054 38.666 62.9544V70.7464C38.666 73.0953 40.5702 74.9995 42.9192 74.9995H64.2018C66.5508 74.9995 68.455 73.0953 68.455 70.7464V62.9544C68.455 60.6054 66.5508 58.7012 64.2018 58.7012Z" fill="#2C3C80"/>
<path opacity="0.1" d="M46.7841 74.9997H42.9197C40.5713 74.9997 38.666 73.0944 38.666 70.746V62.9534C38.666 60.605 40.5713 58.7012 42.9197 58.7012H46.7841C44.4343 58.7012 42.5304 60.6051 42.5304 62.9534V70.746C42.5305 73.0944 44.4343 74.9997 46.7841 74.9997Z" fill="white"/>
<path d="M68.4564 37.5547V53.8532H59.7537C57.4053 53.8532 55.5 51.9479 55.5 49.5995V41.8069C55.5 39.4585 57.4053 37.5547 59.7537 37.5547H68.4564Z" fill="#707AA9"/>
<path opacity="0.1" d="M63.6181 53.8532H59.7537C57.4053 53.8532 55.5 51.9479 55.5 49.5995V41.8069C55.5 39.4585 57.4053 37.5547 59.7537 37.5547H63.6181C61.2683 37.5547 59.3644 39.4586 59.3644 41.8069V49.5995C59.3645 51.9479 61.2683 53.8532 63.6181 53.8532Z" fill="white"/>
<path d="M17.9549 41.8065V49.599C17.9549 51.9474 16.051 53.8513 13.7027 53.8513H5V37.5527H13.7027C16.0511 37.5527 17.9549 39.458 17.9549 41.8065Z" fill="#2C3C80"/>
<path d="M30.5358 16.4062H9.25318C6.90422 16.4062 5 18.3105 5 20.6594V28.4514C5 30.8004 6.90422 32.7046 9.25318 32.7046H30.5358C32.8847 32.7046 34.789 30.8004 34.789 28.4514V20.6594C34.789 18.3105 32.8847 16.4062 30.5358 16.4062Z" fill="#707AA9"/>
<path opacity="0.1" d="M13.1182 32.7048H9.25373C6.90531 32.7048 5 30.7995 5 28.451V20.6585C5 18.3101 6.90531 16.4062 9.25373 16.4062H13.1181C10.7683 16.4062 8.86436 18.3102 8.86436 20.6585V28.451C8.86449 30.7995 10.7684 32.7048 13.1182 32.7048Z" fill="white"/>
<path d="M47.3698 37.5527H26.0872C23.7382 37.5527 21.834 39.457 21.834 41.8059V49.5979C21.834 51.9469 23.7382 53.8511 26.0872 53.8511H47.3698C49.7187 53.8511 51.6229 51.9469 51.6229 49.5979V41.8059C51.6229 39.457 49.7187 37.5527 47.3698 37.5527Z" fill="#2C3C80"/>
<path opacity="0.1" d="M29.9522 53.8532H26.0877C23.7393 53.8532 21.834 51.9479 21.834 49.5995V41.8069C21.834 39.4585 23.7393 37.5547 26.0877 37.5547H29.9521C27.6023 37.5547 25.6983 39.4586 25.6983 41.8069V49.5995C25.6985 51.9479 27.6024 53.8532 29.9522 53.8532Z" fill="white"/>
<path d="M71.3577 13.0875L51.5525 5.2964C49.3665 4.43644 46.8974 5.51146 46.0376 7.69731L43.1851 14.9485C42.3251 17.1345 43.4001 19.6036 45.586 20.4634L65.3912 28.2545C67.5772 29.1144 70.0463 28.0394 70.9062 25.8536L73.7587 18.6024C74.6186 16.4166 73.5437 13.9474 71.3577 13.0875Z" fill="#707AA9"/>
<path opacity="0.1" d="M55.0824 6.68531C52.8968 5.82467 50.4281 6.90051 49.5674 9.0861L46.7151 16.3379C45.8544 18.5235 46.9303 20.9922 49.1158 21.8529L45.5855 20.4642C43.3999 19.6036 42.3256 17.1349 43.1847 14.9493L46.0371 7.69744C46.8977 5.51186 49.3665 4.43602 51.552 5.29666L55.0824 6.68531Z" fill="white"/>
</svg>
