<svg width="80" height="80" viewBox="0 0 80 80" fill="none" xmlns="http://www.w3.org/2000/svg">
<path d="M36.2498 70.0007V63.9539L32.7305 63.1719V70.0007H36.2498Z" fill="#ABB2CD"/>
<path d="M46.2889 70.0007V63.1719L42.7695 63.9539V70.0007H46.2889Z" fill="#ABB2CD"/>
<path d="M21 15.1899C21 13.7595 21.9461 12.5015 23.3213 12.1076C26.287 11.2581 31.9547 10 39.5097 10C47.2655 10 52.8239 11.2394 55.7219 12.0885C57.0856 12.4881 58.0193 13.7429 58.0193 15.1638V54.7283C58.0193 56.1587 57.0733 57.4167 55.6981 57.8105C52.7323 58.66 47.0647 59.9182 39.5097 59.9182C31.7538 59.9182 26.1954 58.6788 23.2975 57.8296C21.9338 57.43 21 56.1753 21 54.7544V15.1899Z" fill="#A2A9C7"/>
<path opacity="0.1" d="M55.722 12.0885C52.8241 11.2394 47.2656 10 39.5098 10C38.8411 10 38.188 10.0103 37.5495 10.0288C44.2523 10.2186 49.0989 11.3152 51.7381 12.0885C53.1018 12.4881 54.0356 13.7429 54.0356 15.1638V54.7283C54.0356 56.1587 53.0895 57.4167 51.7143 57.8105C49.011 58.5848 44.0622 59.6982 37.4863 59.8892C38.1434 59.9079 38.8175 59.918 39.5099 59.918C47.0649 59.918 52.7326 58.6599 55.6983 57.8104C57.0735 57.4166 58.0196 56.1584 58.0196 54.7282V15.1638C58.0195 13.7429 57.0857 12.4881 55.722 12.0885Z" fill="white"/>
<path d="M52.4504 57.418V61.5634C52.4504 62.4647 51.8582 63.2605 50.9931 63.5141C48.9695 64.1073 44.9362 65.0355 39.5103 65.0355C33.9481 65.0355 30.0025 64.1237 28.0231 63.53C27.1612 63.2715 26.5703 62.4802 26.5703 61.5805V57.418H52.4504Z" fill="#2C3C80"/>
<path d="M48.4651 57.418V61.5634C48.4651 62.4647 47.873 63.2606 47.0079 63.5141C45.2366 64.0333 41.9254 64.8092 37.4883 64.9946C38.1359 65.021 38.8096 65.0355 39.5089 65.0355C44.9349 65.0355 48.9682 64.1073 50.9918 63.5142C51.8569 63.2606 52.449 62.4648 52.449 61.5635V57.4181H48.4651V57.418Z" fill="#41508D"/>
<path d="M39.511 31.0459C42.8361 31.0459 45.5317 28.3507 45.5317 25.0259C45.5317 21.7011 42.8361 19.0059 39.511 19.0059C36.1858 19.0059 33.4902 21.7011 33.4902 25.0259C33.4902 28.3507 36.1858 31.0459 39.511 31.0459Z" fill="#2C3C80"/>
<path d="M39.4484 25.9621C39.2168 25.9621 38.985 25.8736 38.8081 25.6968C38.4546 25.3432 38.4546 24.7699 38.8082 24.4163L40.6236 22.6011C40.9773 22.2475 41.5504 22.2476 41.9041 22.6013C42.2577 22.9548 42.2577 23.5281 41.904 23.8818L40.0886 25.6969C39.9119 25.8737 39.6801 25.9621 39.4484 25.9621Z" fill="#ABB2CD"/>
<path d="M21 46.293V54.7551C21 56.176 21.9338 57.4307 23.2975 57.8303C26.1954 58.6795 31.7538 59.9188 39.5097 59.9188C47.0646 59.9188 52.7323 58.6607 55.6981 57.8112C57.0733 57.4174 58.0193 56.1592 58.0193 54.729V46.293H21Z" fill="#707AA9"/>
<path d="M54.0356 46.2931V54.7291C54.0356 56.1595 53.0895 57.4175 51.7143 57.8113C49.011 58.5856 44.0622 59.699 37.4863 59.89C38.1434 59.9086 38.8175 59.9188 39.5099 59.9188C47.0649 59.9188 52.7326 58.6607 55.6983 57.8112C57.0735 57.4174 58.0196 56.1592 58.0196 54.729V46.293H54.0356V46.2931Z" fill="#7E87B2"/>
<path d="M33.2165 53.3695C34.3817 53.3695 34.3837 51.5586 33.2165 51.5586C32.0512 51.5587 32.0493 53.3695 33.2165 53.3695Z" fill="#ABB2CD"/>
<path d="M39.5094 53.3695C40.6746 53.3695 40.6766 51.5586 39.5094 51.5586C38.3442 51.5587 38.3422 53.3695 39.5094 53.3695Z" fill="#2C3C80"/>
<path d="M45.8023 53.3695C46.9675 53.3695 46.9695 51.5586 45.8023 51.5586C44.6371 51.5587 44.6353 53.3695 45.8023 53.3695Z" fill="#ABB2CD"/>
</svg>
