<svg width="30" height="30" viewBox="0 0 30 30" fill="none" xmlns="http://www.w3.org/2000/svg">
<path d="M20.7064 3.75468L17.7887 3.75C14.5108 3.75 12.3924 5.92339 12.3924 9.28728V11.8403H9.45878C9.20528 11.8403 9 12.0459 9 12.2994V15.9984C9 16.252 9.20552 16.4572 9.45878 16.4572H12.3924V25.7912C12.3924 26.0447 12.5977 26.25 12.8512 26.25H16.6788C16.9323 26.25 17.1375 26.0445 17.1375 25.7912V16.4572H20.5676C20.8211 16.4572 21.0264 16.252 21.0264 15.9984L21.0278 12.2994C21.0278 12.1776 20.9794 12.0611 20.8935 11.9749C20.8076 11.8888 20.6905 11.8403 20.5688 11.8403H17.1375V9.67608C17.1375 8.63585 17.3854 8.10778 18.7405 8.10778L20.706 8.10707C20.9592 8.10707 21.1645 7.90156 21.1645 7.64829V4.21347C21.1645 3.96043 20.9595 3.75515 20.7064 3.75468Z" stroke="white" stroke-width="2"/>
</svg>
