<svg width="40" height="40" viewBox="0 0 40 40" fill="none" xmlns="http://www.w3.org/2000/svg">
<path d="M27.6086 5.00624L23.7183 5C19.3477 5 16.5232 7.89785 16.5232 12.383V15.7871H12.6117C12.2737 15.7871 12 16.0611 12 16.3991V21.3313C12 21.6693 12.274 21.943 12.6117 21.943H16.5232V34.3883C16.5232 34.7263 16.7969 35 17.1349 35H22.2383C22.5763 35 22.85 34.726 22.85 34.3883V21.943H27.4235C27.7615 21.943 28.0352 21.6693 28.0352 21.3313L28.0371 16.3991C28.0371 16.2369 27.9725 16.0814 27.858 15.9666C27.7434 15.8517 27.5874 15.7871 27.4251 15.7871H22.85V12.9014C22.85 11.5145 23.1806 10.8104 24.9873 10.8104L27.608 10.8094C27.9457 10.8094 28.2194 10.5354 28.2194 10.1977V5.61796C28.2194 5.28058 27.946 5.00687 27.6086 5.00624Z" stroke="#2C3C80" stroke-width="2.6"/>
</svg>
