<svg width="30" height="30" viewBox="0 0 30 30" fill="none" xmlns="http://www.w3.org/2000/svg">
<path d="M20.1595 3.75H9.84055C6.48216 3.75 3.75 6.48216 3.75 9.84055V20.1596C3.75 23.5178 6.48216 26.25 9.84055 26.25H20.1596C23.5178 26.25 26.25 23.5178 26.25 20.1596V9.84055C26.25 6.48216 23.5178 3.75 20.1595 3.75V3.75ZM24.931 20.1596C24.931 22.7905 22.7905 24.931 20.1595 24.931H9.84055C7.20949 24.931 5.06905 22.7905 5.06905 20.1596V9.84055C5.06905 7.20949 7.20949 5.06905 9.84055 5.06905H20.1596C22.7905 5.06905 24.931 7.20949 24.931 9.84055V20.1596Z" fill="white" stroke="white"/>
<path d="M14.9998 8.84766C11.6075 8.84766 8.84766 11.6075 8.84766 14.9998C8.84766 18.3922 11.6075 21.152 14.9998 21.152C18.3922 21.152 21.152 18.3922 21.152 14.9998C21.152 11.6075 18.3922 8.84766 14.9998 8.84766ZM14.9998 19.833C12.335 19.833 10.1667 17.6649 10.1667 14.9998C10.1667 12.335 12.335 10.1667 14.9998 10.1667C17.6649 10.1667 19.833 12.335 19.833 14.9998C19.833 17.6649 17.6649 19.833 14.9998 19.833Z" fill="white" stroke="white"/>
<path d="M19.9805 8.48049C19.9805 7.75427 20.572 7.1626 21.2984 7.1626C22.0248 7.1626 22.6164 7.75419 22.6164 8.48049C22.6164 9.20685 22.0247 9.79856 21.2984 9.79856C20.5721 9.79856 19.9805 9.20691 19.9805 8.48049ZM20.2995 8.48049C20.2995 9.03164 20.7472 9.47934 21.2984 9.47934C21.8496 9.47934 22.2974 9.03175 22.2974 8.48049C22.2974 7.92895 21.8495 7.48164 21.2984 7.48164C20.7473 7.48164 20.2995 7.92906 20.2995 8.48049Z" fill="white" stroke="white"/>
</svg>
