<svg width="40" height="40" viewBox="0 0 40 40" fill="none" xmlns="http://www.w3.org/2000/svg">
<path d="M26.8793 5H13.1207C8.64288 5 5 8.64288 5 13.1207V26.8795C5 31.3571 8.64288 35 13.1207 35H26.8795C31.3571 35 35 31.3571 35 26.8795V13.1207C35 8.64288 31.3571 5 26.8793 5V5ZM33.2413 26.8795C33.2413 30.3873 30.3873 33.2413 26.8793 33.2413H13.1207C9.61266 33.2413 6.75873 30.3873 6.75873 26.8795V13.1207C6.75873 9.61266 9.61266 6.75873 13.1207 6.75873H26.8795C30.3873 6.75873 33.2413 9.61266 33.2413 13.1207V26.8795Z" fill="#2C3C80" stroke="#2C3C80" stroke-width="1.1"/>
<path d="M19.9998 11.7969C15.4766 11.7969 11.7969 15.4766 11.7969 19.9998C11.7969 24.5229 15.4766 28.2027 19.9998 28.2027C24.5229 28.2027 28.2027 24.5229 28.2027 19.9998C28.2027 15.4766 24.5229 11.7969 19.9998 11.7969ZM19.9998 26.4439C16.4466 26.4439 13.5556 23.5532 13.5556 19.9998C13.5556 16.4466 16.4466 13.5556 19.9998 13.5556C23.5532 13.5556 26.4439 16.4466 26.4439 19.9998C26.4439 23.5532 23.5532 26.4439 19.9998 26.4439Z" fill="#2C3C80" stroke="#2C3C80" stroke-width="1.1"/>
<path d="M26.5246 11.3067C26.5246 10.274 27.3656 9.43281 28.3985 9.43281C29.4314 9.43281 30.2726 10.2738 30.2726 11.3067C30.2726 12.3396 29.4314 13.1808 28.3985 13.1808C27.3656 13.1808 26.5246 12.3397 26.5246 11.3067ZM27.1833 11.3067C27.1833 11.9771 27.728 12.5218 28.3985 12.5218C29.069 12.5218 29.6138 11.9772 29.6138 11.3067C29.6138 10.6358 29.0689 10.0915 28.3985 10.0915C27.7282 10.0915 27.1833 10.6359 27.1833 11.3067Z" fill="#2C3C80" stroke="#2C3C80" stroke-width="1.1"/>
</svg>
