<svg width="40" height="40" viewBox="0 0 40 40" fill="none" xmlns="http://www.w3.org/2000/svg">
<g clip-path="url(#clip0)">
<path d="M34.4883 10.4062C33.0821 5.85937 29.3789 2.15617 24.832 0.75C23.2383 0.257734 21.5977 0 20.0039 0C16.7461 0 13.6055 1.00781 10.9805 2.97664C7.08977 5.83594 4.76953 10.4062 4.76953 15.2344C4.76953 18.5624 5.82422 21.7266 7.81641 24.3751L20.0039 40L32.1914 24.3751C35.1679 20.3906 36.0117 15.3048 34.4883 10.4062ZM20.0039 23.4375C15.4805 23.4375 11.8008 19.7578 11.8008 15.2344C11.8008 10.7109 15.4805 7.03125 20.0039 7.03125C24.5273 7.03125 28.207 10.7109 28.207 15.2344C28.207 19.7578 24.5273 23.4375 20.0039 23.4375Z" fill="#2C3C80"/>
<path d="M32.1914 24.3751L20.0039 40V23.4375C24.5273 23.4375 28.207 19.7578 28.207 15.2344C28.207 10.7109 24.5273 7.03125 20.0039 7.03125V0C21.5977 0 23.2383 0.257812 24.832 0.75C29.3789 2.15617 33.0821 5.85937 34.4883 10.4062C36.0117 15.3048 35.1679 20.3906 32.1914 24.3751Z" fill="#566399"/>
</g>
<defs>
<clipPath id="clip0">
<rect width="40" height="40" fill="white"/>
</clipPath>
</defs>
</svg>
