<svg width="132" height="132" viewBox="0 0 132 132" fill="none" xmlns="http://www.w3.org/2000/svg">
<circle opacity="0.1" r="46.53" transform="matrix(-0.965926 -0.258819 -0.258819 0.965926 65.5361 65.5354)" fill="white"/>
<circle opacity="0.1" r="53.5095" transform="matrix(-0.965926 -0.258819 -0.258819 0.965926 65.5368 65.5351)" fill="white"/>
<circle r="39.2759" transform="matrix(-0.965926 -0.258819 -0.258819 0.965926 65.5962 65.9197)" fill="white"/>
<path fill-rule="evenodd" clip-rule="evenodd" d="M64.1844 46.8503L64.1844 43.2588L73.929 49.0337L73.9353 52.5013L64.1844 46.8503Z" fill="#2C3C80"/>
<path fill-rule="evenodd" clip-rule="evenodd" d="M64.1848 75.2589V48.093L73.9288 53.464V80.2902C72.3387 80.2902 71.0497 78.9473 71.0497 77.2908V58.2924L66.5096 55.4547V77.2042C66.5096 78.9086 65.1834 80.2902 63.5475 80.2902H55.3809L64.1848 75.2589Z" fill="#2C3C80"/>
<path fill-rule="evenodd" clip-rule="evenodd" d="M62.9665 64.201V43.2588L53.4434 48.9445V69.5496L56.4011 67.8853V51.3646L60.4207 48.6888V65.6233L62.9665 64.201Z" fill="#2C3C80"/>
<path fill-rule="evenodd" clip-rule="evenodd" d="M53.4434 71.1647V74.6385L62.9665 69.3855V65.8699L53.4434 71.1647Z" fill="#2C3C80"/>
<path fill-rule="evenodd" clip-rule="evenodd" d="M53.4434 76.2176L53.4434 79.9482L62.9665 74.3462V70.8306L53.4434 76.2176Z" fill="#2C3C80"/>
<path fill-rule="evenodd" clip-rule="evenodd" d="M78.0215 63.9312V80.2902H74.926V61.4605L78.0215 63.9312Z" fill="#2C3C80"/>
<path fill-rule="evenodd" clip-rule="evenodd" d="M82.1183 69.7904V80.2903H79.0227V67.3197L82.1183 69.7904Z" fill="#2C3C80"/>
<path fill-rule="evenodd" clip-rule="evenodd" d="M85.0549 73.9911C85.7866 74.575 86.2156 75.4805 86.2156 76.4407V79.673C86.2156 80.0139 85.9504 80.2902 85.6232 80.2902H83.1201V72.4468L85.0549 73.9911Z" fill="#2C3C80"/>
<path fill-rule="evenodd" clip-rule="evenodd" d="M49.346 69.4149V80.2904H52.1836V66.8803L49.346 69.4149Z" fill="#2C3C80"/>
<path fill-rule="evenodd" clip-rule="evenodd" d="M45.8992 75.4167C45.1421 75.9984 44.6953 76.9202 44.6953 77.9002V79.6731C44.6953 80.0139 44.9606 80.2903 45.2877 80.2903H48.0489V73.7649L45.8992 75.4167Z" fill="#2C3C80"/>
</svg>
