<svg width="40" height="40" viewBox="0 0 40 40" fill="none" xmlns="http://www.w3.org/2000/svg">
<path d="M34.9219 26.6406V31.3281C34.9219 33.3672 33.257 34.8438 31.4227 34.8438C24.6719 34.8438 18.0859 31.6523 13.1875 26.7734C8.28906 21.8945 5.07812 15.3281 5.07812 8.57734C5.07812 6.63828 6.65547 5.07812 8.59375 5.07812H13.2812C13.7859 5.07812 14.2336 5.40078 14.3922 5.87891L16.7359 12.8937C16.8508 13.2375 16.8 13.6141 16.6 13.9148L14.6125 16.8969C15.3656 18.4766 16.6984 20.2031 18.2375 21.7234C19.7773 23.243 21.5234 24.5562 23.1031 25.3094L26.0852 23.3219C26.3875 23.1227 26.7625 23.0703 27.1062 23.1859L34.1375 25.5297C34.6156 25.6883 34.9219 26.1359 34.9219 26.6406Z" fill="#2C3C80"/>
<path opacity="0.2" d="M34.9219 26.6408V31.3283C34.9219 33.3674 33.257 34.8439 31.4227 34.8439C24.6719 34.8439 18.0859 31.6525 13.1875 26.7736L18.2375 21.7236C19.7773 23.2432 21.5234 24.5564 23.1031 25.3096L26.0852 23.3221C26.3875 23.1229 26.7625 23.0705 27.1062 23.1861L34.1375 25.5299C34.6156 25.6885 34.9219 26.1361 34.9219 26.6408Z" fill="white"/>
</svg>
