<svg width="40" height="40" viewBox="0 0 40 40" fill="none" xmlns="http://www.w3.org/2000/svg">
<path d="M29.1509 33.8343C28.9166 33.8343 28.6838 33.7649 28.4842 33.6296L20.941 28.5128L16.8952 31.424C16.5779 31.6521 16.1689 31.7096 15.8005 31.5779C15.4325 31.4458 15.1531 31.141 15.0533 30.7631L13.0219 23.0645L5.76336 20.2891C5.3064 20.1143 5.00335 19.6771 5.00003 19.1879C4.9967 18.6986 5.29374 18.2574 5.74847 18.0764L33.348 7.09431C33.4733 7.04111 33.6058 7.01039 33.7394 7.00216C33.7873 6.99931 33.8352 6.99931 33.8829 7.002C34.1597 7.01847 34.4315 7.1312 34.6437 7.33925C34.6657 7.36079 34.6866 7.38279 34.7064 7.40575C34.8821 7.60652 34.9787 7.8513 34.9969 8.10068C35.0014 8.16338 35.0011 8.22687 34.9955 8.29037C34.9917 8.33565 34.9852 8.38077 34.976 8.42558L30.3174 32.8691C30.2425 33.2618 29.9752 33.5905 29.606 33.7436C29.4595 33.8044 29.3048 33.8343 29.1509 33.8343ZM21.6033 26.0922L28.3225 30.6499L31.9474 11.6301L18.8552 24.2281L21.5716 26.0708C21.5825 26.0776 21.593 26.0849 21.6033 26.0922ZM16.0098 25.0787L16.9095 28.4877L18.8478 27.0929L16.3097 25.3712C16.1917 25.2914 16.0907 25.1919 16.0098 25.0787ZM9.45492 19.1576L14.439 21.0632C14.796 21.1997 15.0655 21.4999 15.163 21.8694L15.7951 24.2649C15.8241 23.9886 15.9493 23.7286 16.1528 23.5327L28.6278 11.5288L9.45492 19.1576Z" fill="#2C3C80"/>
</svg>
