<svg width="30" height="30" viewBox="0 0 30 30" fill="none" xmlns="http://www.w3.org/2000/svg">
<path d="M21.8632 25.3757C21.6874 25.3757 21.5129 25.3237 21.3631 25.2222L15.7057 21.3846L12.6714 23.568C12.4334 23.7391 12.1267 23.7822 11.8504 23.6834C11.5744 23.5844 11.3648 23.3558 11.29 23.0723L9.76641 17.2984L4.32252 15.2168C3.9798 15.0857 3.75251 14.7579 3.75002 14.3909C3.74753 14.024 3.9703 13.693 4.31136 13.5573L25.011 5.32073C25.105 5.28083 25.2044 5.25779 25.3046 5.25162C25.3405 5.24948 25.3764 5.24948 25.4122 5.2515C25.6198 5.26385 25.8236 5.3484 25.9828 5.50444C25.9993 5.52059 26.015 5.5371 26.0298 5.55431C26.1616 5.70489 26.2341 5.88848 26.2477 6.07551C26.251 6.12254 26.2508 6.17016 26.2466 6.21777C26.2438 6.25174 26.2389 6.28558 26.232 6.31919L22.738 24.6518C22.6819 24.9463 22.4814 25.1928 22.2045 25.3077C22.0946 25.3533 21.9786 25.3757 21.8632 25.3757ZM16.2025 19.5692L21.2419 22.9874L23.9606 8.72258L14.1414 18.1711L16.1787 19.5531C16.1869 19.5582 16.1947 19.5637 16.2025 19.5692ZM12.0074 18.809L12.6821 21.3657L14.1358 20.3197L12.2323 19.0284C12.1438 18.9685 12.068 18.8939 12.0074 18.809ZM7.09119 14.3682L10.8292 15.7974C11.097 15.8998 11.2991 16.1249 11.3723 16.4021L11.8463 18.1987C11.8681 17.9914 11.962 17.7964 12.1146 17.6496L21.4708 8.64658L7.09119 14.3682Z" fill="white"/>
</svg>
