<svg width="55" height="49" viewBox="0 0 55 49" fill="none" xmlns="http://www.w3.org/2000/svg">
<rect x="26" width="17" height="3" fill="white"/>
<rect x="7" y="8" width="40" height="3" fill="white"/>
<rect x="12" y="16" width="18" height="3" fill="white"/>
<path d="M1.62 44V34.52H4.28L7.4 41.44H7.42L10.5 34.52H13.18V44H11.32V36.74H11.28L7.94 44H6.8L3.5 36.72H3.48V44H1.62ZM20.8047 44.26C19.3514 44.26 18.1514 43.8 17.2047 42.88C16.2714 41.96 15.8047 40.76 15.8047 39.28C15.8047 37.8133 16.2714 36.6133 17.2047 35.68C18.138 34.7333 19.3047 34.26 20.7047 34.26C22.1047 34.26 23.2114 34.7067 24.0247 35.6C24.8514 36.48 25.2647 37.6733 25.2647 39.18C25.2647 39.46 25.258 39.6733 25.2447 39.82H17.7247C17.7514 40.6333 18.0647 41.32 18.6647 41.88C19.2647 42.4267 19.978 42.7 20.8047 42.7C21.9914 42.7 22.9114 42.22 23.5647 41.26L24.8847 42.32C23.8847 43.6133 22.5247 44.26 20.8047 44.26ZM17.7247 38.42H23.3647C23.338 37.6333 23.098 36.9933 22.6447 36.5C22.1914 35.9933 21.5447 35.74 20.7047 35.74C19.9047 35.74 19.2247 36 18.6647 36.52C18.1047 37.04 17.7914 37.6733 17.7247 38.42ZM27.8895 44V34.52H29.7695V38.28H34.4695V34.52H36.3495V44H34.4695V39.82H29.7695V44H27.8895ZM48.2888 44.28C46.9688 44.28 45.8554 43.8667 44.9488 43.04C44.0421 42.2133 43.5221 41.14 43.3888 39.82H41.4688V44H39.5888V34.52H41.4688V38.28H43.4288C43.6288 37.08 44.1754 36.1133 45.0688 35.38C45.9621 34.6333 47.0354 34.26 48.2888 34.26C49.7154 34.26 50.8954 34.7333 51.8288 35.68C52.7754 36.6133 53.2488 37.8067 53.2488 39.26C53.2488 40.7267 52.7754 41.9333 51.8288 42.88C50.8954 43.8133 49.7154 44.28 48.2888 44.28ZM48.2888 42.68C49.2088 42.68 49.9421 42.36 50.4888 41.72C51.0354 41.0667 51.3088 40.2467 51.3088 39.26C51.3088 38.2733 51.0354 37.46 50.4888 36.82C49.9421 36.1667 49.2088 35.84 48.2888 35.84C47.3688 35.84 46.6354 36.1667 46.0888 36.82C45.5421 37.46 45.2688 38.2733 45.2688 39.26C45.2688 40.2467 45.5421 41.0667 46.0888 41.72C46.6488 42.36 47.3821 42.68 48.2888 42.68Z" fill="white"/>
</svg>
