<svg width="195" height="64" viewBox="0 0 195 64" fill="none" xmlns="http://www.w3.org/2000/svg">
<path d="M81.8008 40.7608L82.7608 40.5208V30.2808L81.8008 30.0408V29.8008H86.1208C87.7421 29.8008 88.9314 30.0621 89.6888 30.5848C90.4568 31.0968 90.8408 31.7688 90.8408 32.6008C90.8408 33.1768 90.6754 33.6408 90.3448 33.9928C90.0141 34.3448 89.5928 34.6061 89.0808 34.7768C88.5368 34.9688 87.9501 35.0701 87.3208 35.0808V35.1608C88.0994 35.1928 88.7768 35.3101 89.3528 35.5128C89.9394 35.7048 90.4248 36.0034 90.8088 36.4088C91.2034 36.8141 91.4008 37.3314 91.4008 37.9608C91.4008 38.9101 91.0114 39.6568 90.2328 40.2008C89.4541 40.7341 88.1901 41.0008 86.4408 41.0008H81.8008V40.7608ZM86.1208 34.9208C86.4728 34.9208 86.7981 34.8248 87.0968 34.6328C87.4061 34.4301 87.6514 34.1528 87.8328 33.8008C88.0248 33.4381 88.1208 33.0381 88.1208 32.6008C88.1208 32.1314 88.0248 31.7154 87.8328 31.3528C87.6514 30.9901 87.4061 30.7074 87.0968 30.5048C86.7981 30.3021 86.4728 30.2008 86.1208 30.2008H85.4008V34.9208H86.1208ZM86.4408 40.6008C87.1021 40.6008 87.6408 40.3661 88.0568 39.8968C88.4728 39.4274 88.6808 38.7821 88.6808 37.9608C88.6808 37.1394 88.4728 36.4941 88.0568 36.0248C87.6408 35.5554 87.1021 35.3208 86.4408 35.3208H85.4008V40.6008H86.4408Z" fill="white"/>
<path d="M96.8358 41.2408C96.2384 41.2408 95.6998 41.1181 95.2198 40.8728C94.7504 40.6168 94.3824 40.2861 94.1158 39.8808C93.8491 39.4754 93.7158 39.0488 93.7158 38.6008V33.4808L92.7558 33.2408V33.0008H94.8358C95.7958 33.0008 96.2758 33.4808 96.2758 34.4408V38.6008C96.2758 39.2728 96.3931 39.7901 96.6278 40.1528C96.8731 40.5048 97.1558 40.6808 97.4758 40.6808C97.8704 40.6808 98.2278 40.4674 98.5478 40.0408C98.6651 39.8808 98.7878 39.6674 98.9158 39.4008V33.4808L97.9558 33.2408V33.0008H102.436V33.2408L101.476 33.4808V41.0808H101.316C100.537 41.0808 99.9451 40.8674 99.5398 40.4408C99.3584 40.2488 99.2304 40.0354 99.1558 39.8008C99.0064 40.0674 98.8304 40.3074 98.6278 40.5208C98.1478 41.0008 97.5504 41.2408 96.8358 41.2408Z" fill="white"/>
<path d="M103.882 40.7608L104.842 40.5208V33.4808L103.882 33.2408V33.0008H105.962C106.922 33.0008 107.402 33.4808 107.402 34.4408V40.5208L108.362 40.7608V41.0008H103.882V40.7608ZM105.962 32.0408C105.642 32.0408 105.375 31.9341 105.162 31.7208C104.949 31.5074 104.842 31.2408 104.842 30.9208C104.842 30.6008 104.949 30.3341 105.162 30.1208C105.375 29.9074 105.642 29.8008 105.962 29.8008C106.282 29.8008 106.549 29.9074 106.762 30.1208C106.975 30.3341 107.082 30.6008 107.082 30.9208C107.082 31.2408 106.975 31.5074 106.762 31.7208C106.549 31.9341 106.282 32.0408 105.962 32.0408Z" fill="white"/>
<path d="M109.8 40.7608L110.76 40.5208V30.2808L109.8 30.0408V29.8008H111.88C112.84 29.8008 113.32 30.2808 113.32 31.2408V40.5208L114.28 40.7608V41.0008H109.8V40.7608Z" fill="white"/>
<path d="M118.997 41.2408C118.368 41.2408 117.808 41.0808 117.317 40.7608C116.826 40.4301 116.437 39.9501 116.149 39.3208C115.861 38.6808 115.717 37.9074 115.717 37.0008C115.717 35.6354 116.032 34.5901 116.661 33.8648C117.301 33.1288 118.16 32.7608 119.237 32.7608C119.749 32.7608 120.197 32.8674 120.581 33.0808C120.741 33.1554 120.906 33.2621 121.077 33.4008V30.2808L120.117 30.0408V29.8008H122.197C123.157 29.8008 123.637 30.2808 123.637 31.2408V40.5208L124.597 40.7608V41.0008H123.157C122.517 41.0008 122.021 40.8034 121.669 40.4088C121.52 40.2488 121.402 40.0461 121.317 39.8008C121.178 40.0674 121.002 40.3074 120.789 40.5208C120.309 41.0008 119.712 41.2408 118.997 41.2408ZM119.637 40.6808C120.032 40.6808 120.389 40.4674 120.709 40.0408C120.826 39.8808 120.949 39.6674 121.077 39.4008V33.8808C120.96 33.7634 120.837 33.6568 120.709 33.5608C120.421 33.3474 120.144 33.2408 119.877 33.2408C119.418 33.2408 119.061 33.5074 118.805 34.0408C118.56 34.5741 118.437 35.5608 118.437 37.0008C118.437 38.3768 118.549 39.3368 118.773 39.8808C119.008 40.4141 119.296 40.6808 119.637 40.6808Z" fill="white"/>
<path d="M126.119 40.7608L127.079 40.5208V33.4808L126.119 33.2408V33.0008H128.199C129.159 33.0008 129.639 33.4808 129.639 34.4408V40.5208L130.599 40.7608V41.0008H126.119V40.7608ZM128.199 32.0408C127.879 32.0408 127.612 31.9341 127.399 31.7208C127.186 31.5074 127.079 31.2408 127.079 30.9208C127.079 30.6008 127.186 30.3341 127.399 30.1208C127.612 29.9074 127.879 29.8008 128.199 29.8008C128.519 29.8008 128.786 29.9074 128.999 30.1208C129.212 30.3341 129.319 30.6008 129.319 30.9208C129.319 31.2408 129.212 31.5074 128.999 31.7208C128.786 31.9341 128.519 32.0408 128.199 32.0408Z" fill="white"/>
<path d="M132.036 40.7608L132.996 40.5208V33.4808L132.036 33.2408V33.0008H133.476C134.106 33.0008 134.602 33.2034 134.964 33.6088C135.103 33.7688 135.22 33.9661 135.316 34.2008C135.466 33.9234 135.642 33.6834 135.844 33.4808C136.324 33.0008 136.922 32.7608 137.636 32.7608C138.234 32.7608 138.767 32.8888 139.236 33.1448C139.716 33.3901 140.09 33.7154 140.356 34.1208C140.623 34.5261 140.756 34.9528 140.756 35.4008V40.5208L141.716 40.7608V41.0008H139.636C138.676 41.0008 138.196 40.5208 138.196 39.5608V35.4008C138.196 34.7288 138.074 34.2168 137.828 33.8648C137.594 33.5021 137.316 33.3208 136.996 33.3208C136.591 33.3208 136.228 33.5341 135.908 33.9608C135.77 34.1421 135.652 34.3554 135.556 34.6008V40.5208L136.516 40.7608V41.0008H132.036V40.7608Z" fill="white"/>
<path d="M146.917 44.4408C145.968 44.4408 145.194 44.3554 144.597 44.1848C144 44.0141 143.568 43.7954 143.301 43.5288C143.045 43.2621 142.917 42.9794 142.917 42.6808C142.917 42.3181 143.024 42.0248 143.237 41.8008C143.461 41.5874 143.754 41.4808 144.117 41.4808C144.202 41.4808 144.357 41.4968 144.581 41.5288L144.757 41.5608V43.8008C144.885 43.8434 145.088 43.8968 145.365 43.9608C145.856 44.0674 146.32 44.1208 146.757 44.1208C148.058 44.1208 149.008 43.9341 149.605 43.5608C150.213 43.1981 150.517 42.7448 150.517 42.2008C150.517 41.5074 149.877 41.1608 148.597 41.1608H145.557C144.757 41.1608 144.144 40.9954 143.717 40.6648C143.29 40.3341 143.077 39.9128 143.077 39.4008C143.077 38.8888 143.328 38.4354 143.829 38.0408C144.032 37.8914 144.288 37.7581 144.597 37.6408C144.202 37.3954 143.914 37.1074 143.733 36.7768C143.562 36.4354 143.477 36.0301 143.477 35.5608C143.477 34.7714 143.776 34.1368 144.373 33.6568C144.97 33.1661 145.845 32.9208 146.997 32.9208C147.498 32.9208 147.957 32.9741 148.373 33.0808C148.8 33.1768 149.141 33.3101 149.397 33.4808C149.482 33.2994 149.594 33.1394 149.733 33.0008C150.053 32.6808 150.448 32.5208 150.917 32.5208C151.28 32.5208 151.584 32.6488 151.829 32.9048C152.074 33.1501 152.197 33.4754 152.197 33.8808C152.197 34.1901 152.112 34.4408 151.941 34.6328C151.781 34.8248 151.573 34.9208 151.317 34.9208C151.2 34.9208 151.066 34.9101 150.917 34.8888L150.757 34.8408V32.9208C150.48 32.9208 150.218 33.0541 149.973 33.3208C149.877 33.4168 149.792 33.5501 149.717 33.7208C150.25 34.1901 150.517 34.8034 150.517 35.5608C150.517 36.3501 150.218 36.9901 149.621 37.4808C149.024 37.9608 148.149 38.2008 146.997 38.2008C146.229 38.2008 145.536 38.0674 144.917 37.8008L144.597 37.9608C144.49 38.0248 144.41 38.0888 144.357 38.1528C144.304 38.2061 144.277 38.2754 144.277 38.3608C144.277 38.5421 144.368 38.6808 144.549 38.7768C144.741 38.8728 145.077 38.9208 145.557 38.9208H148.597C149.397 38.9208 150.021 39.1554 150.469 39.6248C150.928 40.0834 151.157 40.7288 151.157 41.5608C151.157 42.4141 150.8 43.1074 150.085 43.6408C149.381 44.1741 148.325 44.4408 146.917 44.4408ZM146.997 37.8808C147.349 37.8808 147.621 37.7101 147.813 37.3688C148.016 37.0274 148.117 36.4248 148.117 35.5608C148.117 34.6968 148.016 34.0941 147.813 33.7528C147.621 33.4114 147.349 33.2408 146.997 33.2408C146.645 33.2408 146.368 33.4114 146.165 33.7528C145.973 34.0941 145.877 34.6968 145.877 35.5608C145.877 36.4248 145.973 37.0274 146.165 37.3688C146.368 37.7101 146.645 37.8808 146.997 37.8808Z" fill="white"/>
<path d="M81.8008 59.7608L82.7608 59.5208V49.2808L81.8008 49.0408V48.8008H86.3608V49.0408L85.4008 49.2808V59.6008H88.8408C88.8408 58.9288 89.0114 58.3048 89.3528 57.7288C89.5021 57.4834 89.6781 57.2808 89.8808 57.1208H90.3608V60.0008H81.8008V59.7608Z" fill="white"/>
<path d="M95.5702 60.2408C94.9728 60.2408 94.4342 60.1181 93.9542 59.8728C93.4848 59.6168 93.1168 59.2861 92.8502 58.8808C92.5835 58.4754 92.4502 58.0488 92.4502 57.6008V52.4808L91.4902 52.2408V52.0008H93.5702C94.5302 52.0008 95.0102 52.4808 95.0102 53.4408V57.6008C95.0102 58.2728 95.1275 58.7901 95.3622 59.1528C95.6075 59.5048 95.8902 59.6808 96.2102 59.6808C96.6048 59.6808 96.9622 59.4674 97.2822 59.0408C97.3995 58.8808 97.5222 58.6674 97.6502 58.4008V52.4808L96.6902 52.2408V52.0008H101.17V52.2408L100.21 52.4808V60.0808H100.05C99.2715 60.0808 98.6795 59.8674 98.2742 59.4408C98.0928 59.2488 97.9648 59.0354 97.8902 58.8008C97.7408 59.0674 97.5648 59.3074 97.3622 59.5208C96.8822 60.0008 96.2848 60.2408 95.5702 60.2408Z" fill="white"/>
<path d="M102.136 59.7608L103.416 59.2808L105.4 56.7368L102.696 52.4808L101.896 52.2408V52.0008H104.056C104.568 52.0008 104.984 52.1181 105.304 52.3528C105.624 52.5768 105.928 52.9128 106.216 53.3608L107.032 54.6568L108.536 52.7208L107.336 52.2408V52.0008H110.376V52.2408L109.096 52.7208L107.272 55.0408L110.136 59.5208L110.936 59.7608V60.0008H108.776C108.264 60.0008 107.848 59.8888 107.528 59.6648C107.208 59.4408 106.904 59.0994 106.616 58.6408L105.656 57.1368L103.976 59.2808L105.176 59.7608V60.0008H102.136V59.7608Z" fill="white"/>
<path d="M115.499 60.2408C114.902 60.2408 114.363 60.1181 113.883 59.8728C113.414 59.6168 113.046 59.2861 112.779 58.8808C112.512 58.4754 112.379 58.0488 112.379 57.6008V52.4808L111.419 52.2408V52.0008H113.499C114.459 52.0008 114.939 52.4808 114.939 53.4408V57.6008C114.939 58.2728 115.056 58.7901 115.291 59.1528C115.536 59.5048 115.819 59.6808 116.139 59.6808C116.534 59.6808 116.891 59.4674 117.211 59.0408C117.328 58.8808 117.451 58.6674 117.579 58.4008V52.4808L116.619 52.2408V52.0008H121.099V52.2408L120.139 52.4808V60.0808H119.979C119.2 60.0808 118.608 59.8674 118.203 59.4408C118.022 59.2488 117.894 59.0354 117.819 58.8008C117.67 59.0674 117.494 59.3074 117.291 59.5208C116.811 60.0008 116.214 60.2408 115.499 60.2408Z" fill="white"/>
<path d="M122.545 59.7608L123.505 59.5208V52.4808L122.545 52.2408V52.0008H123.985C124.614 52.0008 125.11 52.2034 125.473 52.6088C125.612 52.7688 125.729 52.9661 125.825 53.2008C125.985 52.9661 126.182 52.7528 126.417 52.5608C126.95 52.1341 127.548 51.9208 128.209 51.9208C128.774 51.9208 129.196 52.0541 129.473 52.3208C129.761 52.5768 129.905 52.9501 129.905 53.4408C129.905 53.8034 129.793 54.0968 129.569 54.3208C129.356 54.5341 129.068 54.6408 128.705 54.6408C128.556 54.6408 128.406 54.6301 128.257 54.6088L128.065 54.5608V52.3208C127.521 52.3208 127.025 52.5341 126.577 52.9608C126.364 53.1741 126.193 53.3874 126.065 53.6008V59.5208L127.025 59.7608V60.0008H122.545V59.7608Z" fill="white"/>
<path d="M133.02 63.4408C132.54 63.4408 132.166 63.3128 131.9 63.0568C131.633 62.8008 131.5 62.4488 131.5 62.0008C131.5 61.5954 131.606 61.2808 131.82 61.0568C132.044 60.8328 132.337 60.7208 132.7 60.7208C132.785 60.7208 132.87 60.7261 132.956 60.7368C133.041 60.7581 133.1 60.7688 133.132 60.7688L133.34 60.8008V62.9608C133.649 62.9074 133.921 62.7368 134.156 62.4488C134.39 62.1608 134.652 61.6648 134.94 60.9608L135.26 60.1608L131.1 52.4808L130.3 52.2408V52.0008H132.3C132.854 52.0008 133.292 52.1181 133.612 52.3528C133.942 52.5768 134.225 52.9128 134.46 53.3608L136.46 57.0568L138.14 52.7208L136.94 52.2408V52.0008H139.9V52.2408L138.62 52.7208L135.42 60.9608C135.078 61.8354 134.716 62.4648 134.332 62.8488C133.948 63.2434 133.51 63.4408 133.02 63.4408Z" fill="white"/>
<path d="M145.657 59.7608L146.617 59.5208V49.2808L145.657 49.0408V48.8008H147.737C148.697 48.8008 149.177 49.2808 149.177 50.2408V52.8008C149.337 52.5874 149.502 52.4168 149.673 52.2888C150.132 51.9368 150.66 51.7608 151.257 51.7608C151.854 51.7608 152.388 51.8888 152.857 52.1448C153.337 52.3901 153.71 52.7154 153.977 53.1208C154.244 53.5261 154.377 53.9528 154.377 54.4008V59.5208L155.337 59.7608V60.0008H153.257C152.297 60.0008 151.817 59.5208 151.817 58.5608V54.4008C151.817 53.7288 151.694 53.2168 151.449 52.8648C151.214 52.5021 150.937 52.3208 150.617 52.3208C150.212 52.3208 149.849 52.5341 149.529 52.9608C149.39 53.1421 149.273 53.3554 149.177 53.6008V59.5208L150.137 59.7608V60.0008H145.657V59.7608Z" fill="white"/>
<path d="M161.018 60.2408C159.695 60.2408 158.655 59.8674 157.898 59.1208C157.151 58.3634 156.778 57.3234 156.778 56.0008C156.778 54.6781 157.151 53.6434 157.898 52.8968C158.655 52.1394 159.695 51.7608 161.018 51.7608C162.34 51.7608 163.375 52.1394 164.122 52.8968C164.879 53.6434 165.258 54.6781 165.258 56.0008C165.258 57.3234 164.879 58.3634 164.122 59.1208C163.375 59.8674 162.34 60.2408 161.018 60.2408ZM161.018 59.9208C161.444 59.9208 161.802 59.6221 162.09 59.0248C162.388 58.4274 162.538 57.4194 162.538 56.0008C162.538 54.5821 162.388 53.5741 162.09 52.9768C161.802 52.3794 161.444 52.0808 161.018 52.0808C160.591 52.0808 160.228 52.3794 159.93 52.9768C159.642 53.5741 159.498 54.5821 159.498 56.0008C159.498 57.4194 159.642 58.4274 159.93 59.0248C160.228 59.6221 160.591 59.9208 161.018 59.9208Z" fill="white"/>
<path d="M170.863 60.2408C170.266 60.2408 169.727 60.1181 169.247 59.8728C168.778 59.6168 168.41 59.2861 168.143 58.8808C167.877 58.4754 167.743 58.0488 167.743 57.6008V52.4808L166.783 52.2408V52.0008H168.863C169.823 52.0008 170.303 52.4808 170.303 53.4408V57.6008C170.303 58.2728 170.421 58.7901 170.655 59.1528C170.901 59.5048 171.183 59.6808 171.503 59.6808C171.898 59.6808 172.255 59.4674 172.575 59.0408C172.693 58.8808 172.815 58.6674 172.943 58.4008V52.4808L171.983 52.2408V52.0008H176.463V52.2408L175.503 52.4808V60.0808H175.343C174.565 60.0808 173.973 59.8674 173.567 59.4408C173.386 59.2488 173.258 59.0354 173.183 58.8008C173.034 59.0674 172.858 59.3074 172.655 59.5208C172.175 60.0008 171.578 60.2408 170.863 60.2408Z" fill="white"/>
<path d="M181.67 60.2408C181.008 60.2408 180.416 60.0968 179.894 59.8088C179.638 59.6701 179.43 59.5208 179.27 59.3608C179.099 59.5954 178.912 59.7768 178.71 59.9048C178.614 59.9688 178.507 60.0274 178.39 60.0808H177.99V57.3608H178.63C178.768 57.8088 178.971 58.2248 179.238 58.6088C179.803 59.4301 180.507 59.8408 181.35 59.8408C181.798 59.8408 182.134 59.7341 182.358 59.5208C182.592 59.2968 182.71 58.9768 182.71 58.5608C182.71 58.2088 182.55 57.9154 182.23 57.6808C181.92 57.4354 181.43 57.1368 180.758 56.7848C180.182 56.4968 179.712 56.2408 179.35 56.0168C178.998 55.7821 178.694 55.4941 178.438 55.1528C178.192 54.8008 178.07 54.3901 178.07 53.9208C178.07 53.2808 178.342 52.7634 178.886 52.3688C179.44 51.9634 180.288 51.7608 181.43 51.7608C181.995 51.7608 182.518 51.9101 182.998 52.2088C183.232 52.3474 183.435 52.4914 183.606 52.6408C183.744 52.4488 183.931 52.2674 184.166 52.0968C184.347 51.9901 184.454 51.9314 184.486 51.9208H184.886V54.6408H184.246C184.086 54.1821 183.888 53.7714 183.654 53.4088C183.12 52.5768 182.486 52.1608 181.75 52.1608C181.462 52.1608 181.216 52.2674 181.014 52.4808C180.811 52.6941 180.71 52.9608 180.71 53.2808C180.71 53.6861 180.88 54.0274 181.222 54.3048C181.563 54.5714 182.08 54.8808 182.774 55.2328C183.339 55.5208 183.787 55.7768 184.118 56.0008C184.459 56.2141 184.747 56.4808 184.982 56.8008C185.227 57.1208 185.35 57.4941 185.35 57.9208C185.35 59.4674 184.123 60.2408 181.67 60.2408Z" fill="white"/>
<path d="M191.35 60.2408C189.985 60.2408 188.923 59.8674 188.166 59.1208C187.409 58.3634 187.03 57.3234 187.03 56.0008C187.03 55.1368 187.195 54.3848 187.526 53.7448C187.857 53.1048 188.315 52.6141 188.902 52.2728C189.499 51.9314 190.182 51.7608 190.95 51.7608C191.718 51.7608 192.39 51.9048 192.966 52.1928C193.553 52.4808 194.001 52.8701 194.31 53.3608C194.63 53.8408 194.79 54.3741 194.79 54.9608C194.79 55.2274 194.763 55.4568 194.71 55.6488L194.63 55.9208C194.171 56.0168 193.675 56.0968 193.142 56.1608C192.022 56.3208 190.891 56.4008 189.75 56.4008C189.75 57.6381 189.921 58.5234 190.262 59.0568C190.603 59.5794 191.073 59.8408 191.67 59.8408C192.086 59.8408 192.47 59.7448 192.822 59.5528C193.185 59.3501 193.467 59.0888 193.67 58.7688C193.883 58.4381 193.99 58.1021 193.99 57.7608H194.39C194.39 58.1874 194.262 58.5928 194.006 58.9768C193.75 59.3608 193.393 59.6701 192.934 59.9048C192.475 60.1288 191.947 60.2408 191.35 60.2408ZM189.75 56.0008C190.433 56.0008 190.987 55.9741 191.414 55.9208C191.595 55.9101 191.787 55.8834 191.99 55.8408C192.001 55.7874 192.027 55.6701 192.07 55.4888C192.123 55.2221 192.15 54.9394 192.15 54.6408C192.15 53.7554 192.033 53.1101 191.798 52.7048C191.563 52.2888 191.281 52.0808 190.95 52.0808C190.15 52.0808 189.75 53.3874 189.75 56.0008Z" fill="white"/>
<path fill-rule="evenodd" clip-rule="evenodd" d="M32.897 5.81914L32.897 0L49.3456 9.35668L49.3563 14.9752L32.897 5.81914Z" fill="white"/>
<path fill-rule="evenodd" clip-rule="evenodd" d="M32.8978 51.848V7.83258L49.3453 16.5349V59.9998C46.6613 59.9998 44.4855 57.824 44.4855 55.14V24.3581L36.822 19.7603V54.9998C36.822 57.7612 34.5834 59.9998 31.822 59.9998H18.0369L32.8978 51.848Z" fill="white"/>
<path fill-rule="evenodd" clip-rule="evenodd" d="M30.8413 33.9315V1.71127e-05L14.7665 9.21215V42.5975L19.759 39.9008V13.1333L26.544 8.79801V36.2359L30.8413 33.9315Z" fill="white"/>
<path fill-rule="evenodd" clip-rule="evenodd" d="M14.7665 45.2143V50.8428L30.8413 42.3315V36.6355L14.7665 45.2143Z" fill="white"/>
<path fill-rule="evenodd" clip-rule="evenodd" d="M14.7665 53.4012L14.7666 59.4457L30.8413 50.3691V44.673L14.7665 53.4012Z" fill="white"/>
<path fill-rule="evenodd" clip-rule="evenodd" d="M56.2537 33.4943V59.9999H51.0285V29.4912L56.2537 33.4943Z" fill="white"/>
<path fill-rule="evenodd" clip-rule="evenodd" d="M63.1689 42.9877V60H57.9437V38.9846L63.1689 42.9877Z" fill="white"/>
<path fill-rule="evenodd" clip-rule="evenodd" d="M68.1259 49.7937C69.3609 50.7399 70.0851 52.207 70.0851 53.7628V58.9998C70.0851 59.5521 69.6374 59.9998 69.0851 59.9998H64.8599V47.2916L68.1259 49.7937Z" fill="white"/>
<path fill-rule="evenodd" clip-rule="evenodd" d="M7.85032 42.3792V60.0001H12.64V38.2726L7.85032 42.3792Z" fill="white"/>
<path fill-rule="evenodd" clip-rule="evenodd" d="M2.03217 52.1035C0.754249 53.0461 0 54.5396 0 56.1275V58.9999C0 59.5522 0.447715 59.9999 1 59.9999H5.66071V49.4273L2.03217 52.1035Z" fill="white"/>
</svg>
